# xmcd
#
# Track frame offsets:
#	150
#	16287
#	31957
#	46367
#	57147
#	74085
#	85675
#	102762
#	117035
#	129512
#	144187
#	162940
#	174470
#	186687
#	198945
#
# Disc length: 2817 seconds
#
# Revision: 0
# Processed by: cddbd v1.5.2PL0 Copyright (c) Steve Scherf et al.
# Submitted via: dBpowerAMP V4.0
#
DISCID=c90aff0f
DTITLE=Country Classics - Country Duets
DYEAR=1997
DGENRE=Country
TTITLE0=Something Up My Sleeve - Suzy Bogguss and Billy Dean
TTITLE1=We Fell In Love - Cleve Francis and Patty Austin
TTITLE2=We're Both To Blame - Lee Greenwood and Tanya Tucker
TTITLE3=Bye Bye Love - Lacy J.Dalton and Eddie Rabbitt
TTITLE4=Angels Love Bad Man - Barbara mandrell and Waylon Jennings
TTITLE5=What'cha Gonna Do With a Cowboy - Chris LeDoux and Garth Brooks
TTITLE6=Don't Underestimate Love - The Nitty Gritty Dirt Band and Suzy Bogguss
TTITLE7=Cowboys Like A Little Rock And Roll - Chris LeDoux and Charlie Daniels
TTITLE8=Hopelessly Yours - Lee Greenwood and Suzy Bogguss
TTITLE9=Don't Go Out - Tanya Tucker and T.Graham Brown
TTITLE10=You've Lost That Lovin' Feeling - Kenny Rogers and Dottie West
TTITLE11=All I Have To Do Is Dream - Glen Campbell and Bobbie Gentry
TTITLE12=Willingly - Willie Nelson and Shirley Collie
TTITLE13=Let Your Love Flow - Del Reeves and Billie Jo Spears
TTITLE14=Somethin' 'Bout You Baby I Like - Glen Campbell and Rita Coolidge
EXTD=www.frodehoydal.com
EXTT0=
EXTT1=
EXTT2=
EXTT3=
EXTT4=
EXTT5=
EXTT6=
EXTT7=
EXTT8=
EXTT9=
EXTT10=
EXTT11=
EXTT12=
EXTT13=
EXTT14=
PLAYORDER=
